<?xml version="1.0" encoding="UTF-8"?><svg id="Livello_2" xmlns="http://www.w3.org/2000/svg" viewBox="0 0 307.91 54.76"><defs><style>.cls-1{fill:#ffcb1b;}.cls-2{fill:#ae1b24;}.cls-3{fill:#2bade4;}.cls-4{fill:#3c3c3b;}.cls-5{fill:#51ac32;}</style></defs><g id="Livello_1-2"><g id="quisviluppo"><g id="Q"><path id="verde" class="cls-5" d="M8.21,21.86c.15-2.98,1.44-5.64,3.39-7.6l.41-.41c6.72-6.36,16.83-7.08,24.38-2.21-2.82-4.31-7.29-7.44-12.52-8.57-8.78,1.85-15.4,9.55-15.65,18.78Z"/><path id="rosso" class="cls-2" d="M27.56,31.05c-2.05,1.85-4.77,2.98-7.8,2.98h-.62c-9.24-.26-16.93-6.93-18.78-15.65-.21,1.28-.36,2.67-.36,4.11,0,4,1.18,7.7,3.23,10.78,7.49,4.88,17.6,4.16,24.32-2.21Z"/><path id="grigio" class="cls-4" d="M19.19,34.02c-6.11-.31-10.98-5.39-10.98-11.6v-.62c.26-9.24,6.93-16.93,15.65-18.78-1.33-.26-2.67-.41-4.11-.41C10.26,2.67,2.31,9.39,.41,18.37c1.85,8.78,9.49,15.4,18.78,15.65Z"/><path id="giallo" class="cls-1" d="M36.33,11.65c-7.49-4.88-17.6-4.16-24.38,2.21,2.05-1.85,4.77-2.98,7.8-2.98h.62c9.24,.26,16.93,6.93,18.78,15.65,.26-1.33,.41-2.67,.41-4.11,0-3.95-1.18-7.65-3.23-10.78Z"/><path id="blu" class="cls-3" d="M31.36,23.04c-.15,2.98-1.44,5.64-3.39,7.6h0l-.41,.41c-6.72,6.36-16.83,7.08-24.38,2.21,2.82,4.31,7.29,7.44,12.47,8.57,8.83-1.85,15.45-9.49,15.7-18.78Z"/><path id="grigioq" class="cls-4" d="M39.57,42.23l-2.67-9.9c1.03-1.8,1.8-3.69,2.21-5.8-1.85-8.78-9.49-15.4-18.78-15.65,6.11,.31,10.98,5.39,10.98,11.6v.62c-.26,9.24-6.93,16.93-15.65,18.78,1.33,.26,2.67,.41,4.11,.41,3.59,0,6.98-.98,9.9-2.67l9.9,2.62Z"/></g><path id="u" class="cls-4" d="M53.58,16.06v13.96c0,1.13,.1,2.87,1.44,4.11,.56,.51,1.59,1.18,3.39,1.18,1.54,0,2.72-.51,3.44-1.18,1.18-1.13,1.39-2.82,1.39-4.11v-13.96h8.16v14.78c0,2.87-.31,5.64-2.82,8.11-2.87,2.82-7.13,3.28-10.16,3.28s-7.34-.46-10.21-3.28c-2.31-2.26-2.77-4.82-2.77-7.6v-15.29h8.16Z"/><path id="i" class="cls-4" d="M82.42,.51c2.67,0,4.77,2.1,4.77,4.77s-2.1,4.77-4.77,4.77-4.77-2.1-4.77-4.77,2.1-4.77,4.77-4.77Zm4.11,15.55v25.35h-8.16V16.06h8.16Z"/><path id="s" class="cls-4" d="M108.95,22.53c-1.23-.72-2.87-1.44-4.46-1.44-.87,0-1.8,.21-2.31,.72-.31,.31-.51,.72-.51,1.13,0,.56,.41,.92,.77,1.13,.56,.36,1.44,.51,2.46,.87l2.16,.67c1.44,.46,2.87,1.03,4.21,2.21,1.49,1.39,2,2.87,2,4.82,0,3.34-1.49,5.49-2.62,6.62-2.51,2.51-5.54,2.87-8.21,2.87-3.39,0-7.08-.72-10.37-3.64l3.44-5.49c.77,.67,1.95,1.49,2.77,1.9,1.13,.56,2.31,.77,3.39,.77,.51,0,1.8,0,2.57-.56,.51-.41,.87-1.03,.87-1.64,0-.46-.15-1.03-.92-1.49-.56-.36-1.28-.56-2.51-.92l-2.05-.62c-1.49-.46-3.03-1.23-4.11-2.31-1.18-1.23-1.8-2.67-1.8-4.62,0-2.46,.98-4.46,2.46-5.85,2.26-2.1,5.34-2.57,7.65-2.57,3.75,0,6.36,.98,8.42,2.16l-3.28,5.29Z"/><path id="v" class="cls-4" d="M123.37,16.06l6.41,13.55,6.41-13.55h8.98l-12.83,25.35h-5.13l-12.83-25.35h8.98Z"/><path id="i-2" class="cls-4" d="M153.13,.51c2.67,0,4.77,2.1,4.77,4.77s-2.1,4.77-4.77,4.77-4.77-2.1-4.77-4.77,2.1-4.77,4.77-4.77Zm4.11,15.55v25.35h-8.16V16.06h8.16Z"/><path id="l" class="cls-4" d="M172.53,0V41.41h-8.16V0h8.16Z"/><path id="u-2" class="cls-4" d="M187.31,16.06v13.96c0,1.13,.1,2.87,1.44,4.11,.56,.51,1.59,1.18,3.39,1.18,1.54,0,2.72-.51,3.44-1.18,1.18-1.13,1.39-2.82,1.39-4.11v-13.96h8.16v14.78c0,2.87-.31,5.64-2.82,8.11-2.87,2.82-7.13,3.28-10.16,3.28s-7.34-.46-10.21-3.28c-2.31-2.26-2.77-4.82-2.77-7.6v-15.29h8.16Z"/><path id="p" class="cls-4" d="M219.69,54.4h-8.16V16.06h8.16v3.03c2.67-3.49,5.95-3.85,7.9-3.85,4.57,0,7.39,2,8.98,3.59,2.26,2.26,3.8,5.75,3.8,9.9,0,4.36-1.54,7.65-4.05,10.16s-5.23,3.39-8.57,3.39c-5.03,0-7.24-2.57-8.06-3.75v15.86h0Zm1.33-30.28c-1.28,1.28-1.95,3.13-1.95,4.67s.62,3.23,1.8,4.46c1.18,1.18,2.87,1.95,4.67,1.95,1.54,0,3.18-.62,4.36-1.74,1.28-1.23,2-3.18,2-4.82,0-1.9-.77-3.54-1.95-4.62-1.18-1.13-2.77-1.74-4.41-1.74-2.21,0-3.69,1.08-4.52,1.85Z"/><path id="p-2" class="cls-4" d="M253.61,54.4h-8.16V16.06h8.16v3.03c2.67-3.49,5.95-3.85,7.9-3.85,4.57,0,7.39,2,8.98,3.59,2.26,2.26,3.8,5.75,3.8,9.9,0,4.36-1.54,7.65-4.05,10.16s-5.23,3.39-8.57,3.39c-5.03,0-7.24-2.57-8.06-3.75v15.86h0Zm1.39-30.28c-1.28,1.28-1.95,3.13-1.95,4.67s.62,3.23,1.8,4.46c1.18,1.18,2.87,1.95,4.67,1.95,1.54,0,3.18-.62,4.36-1.74,1.28-1.23,2-3.18,2-4.82,0-1.9-.77-3.54-1.95-4.62-1.18-1.13-2.77-1.74-4.41-1.74-2.26,0-3.75,1.08-4.52,1.85Z"/><path id="o" class="cls-4" d="M304.11,38.18c-2.26,2.26-6.16,4.11-11.08,4.11s-8.78-1.8-11.08-4.11c-2.57-2.57-3.8-6.21-3.8-9.44s1.23-6.88,3.8-9.44c2.26-2.26,6.16-4.11,11.08-4.11s8.83,1.8,11.08,4.11c2.57,2.57,3.8,6.21,3.8,9.44s-1.23,6.88-3.8,9.44Zm-15.65-14.22c-1.18,1.18-1.9,2.72-1.9,4.77,0,2.31,.92,3.8,1.9,4.77,1.03,1.03,2.51,1.8,4.67,1.8,1.8,0,3.34-.62,4.57-1.8,1.18-1.18,1.85-2.72,1.85-4.77s-.67-3.59-1.85-4.77-2.72-1.8-4.62-1.8c-1.9-.05-3.44,.62-4.62,1.8Z"/><path id="punto" class="cls-4" d="M269.37,51.27c.98,0,1.74,.77,1.74,1.74s-.77,1.74-1.74,1.74-1.74-.77-1.74-1.74c0-1.03,.77-1.74,1.74-1.74Z"/><path id="c" class="cls-4" d="M279.94,48.6c-.67-.56-1.33-.67-1.8-.67-.87,0-1.39,.41-1.54,.62-.36,.36-.62,.92-.62,1.59,0,.62,.21,1.18,.56,1.54,.41,.46,1.03,.67,1.64,.67,.46,0,1.13-.15,1.74-.67v2.46c-.72,.41-1.39,.51-2.16,.51-1.44,0-2.51-.51-3.28-1.28-.67-.62-1.33-1.69-1.33-3.23,0-1.44,.62-2.57,1.39-3.34,.92-.87,2.05-1.18,3.23-1.18,.72,0,1.44,.15,2.16,.46v2.51Z"/><path id="o-2" class="cls-4" d="M290.56,53.32c-.77,.77-2.05,1.39-3.69,1.39s-2.93-.62-3.69-1.39c-.87-.87-1.28-2.05-1.28-3.13s.41-2.31,1.28-3.13c.77-.77,2.05-1.39,3.69-1.39s2.93,.62,3.69,1.39c.87,.87,1.28,2.05,1.28,3.13s-.41,2.26-1.28,3.13Zm-5.23-4.72c-.41,.41-.62,.92-.62,1.59,0,.77,.31,1.28,.62,1.59,.36,.36,.82,.62,1.54,.62,.62,0,1.13-.21,1.54-.62,.41-.41,.62-.92,.62-1.59s-.21-1.18-.62-1.59c-.41-.41-.92-.62-1.54-.62s-1.13,.21-1.54,.62Z"/><path id="m" class="cls-4" d="M294.1,45.93h2.72v.98c.72-1.08,1.74-1.18,2.36-1.18,.36,0,1.03,.05,1.59,.36,.41,.26,.77,.67,1.03,1.18,.21-.36,.51-.72,1.08-1.08s1.13-.46,1.8-.46c1.03,0,1.85,.31,2.36,.77,.82,.77,.87,1.9,.87,2.51v5.39h-2.72v-4.26c0-.41,0-1.18-.36-1.64-.21-.31-.56-.46-.98-.46-.46,0-.82,.21-1.08,.51-.36,.46-.41,1.13-.41,1.64v4.21h-2.72v-4.41c0-.56,0-1.23-.41-1.64-.31-.31-.62-.36-.92-.36-.36,0-.67,.1-.92,.36-.51,.51-.51,1.44-.51,1.74v4.31h-2.72v-8.47h-.05Z"/></g></g></svg>